<svg xmlns="http://www.w3.org/2000/svg" focusable="false" tabindex="-1" width="15" height="14.153" viewBox="0 0 15 14.153">
   <path class="svg-color--primary" fill="#37454D" d="M10.714 6.777c.598-.698.947-1.645.947-2.59C11.61 1.843 9.768 0 7.476 0S3.34 1.844 3.34 4.136c0 .997.348 1.894.946 2.59C1.794 7.277 0 9.47 0 12.06c0 1.146.947 2.093 2.093 2.093h10.814c1.146 0 2.093-.947 2.093-2.093-.05-2.592-1.844-4.784-4.286-5.283zm-6.578-2.64c0-1.845 1.495-3.34 3.34-3.34s3.338 1.495 3.338 3.34c0 .996-.45 1.893-1.146 2.49-.598.5-1.346.848-2.193.848s-1.595-.3-2.193-.847c-.697-.598-1.146-1.495-1.146-2.492zm8.72 9.17H2.094c-.698 0-1.246-.55-1.246-1.247 0-2.392 1.844-4.336 4.186-4.535.698.498 1.545.797 2.442.797s1.744-.3 2.442-.797c2.342.2 4.186 2.143 4.186 4.535 0 .697-.548 1.246-1.246 1.246z"></path>
</svg>