<svg xmlns="http://www.w3.org/2000/svg" focusable="false" tabindex="-1" width="25" height="18.75" viewBox="-285 411.14 25 18.75">
	<g class="svg-color--primary" fill="#37454D">
	<path d="M-279.1 422.69c.112-.1.225-.2.375-.3h-3.775c-.687 0-1.25-.563-1.25-1.25 0-1.2.862-2.213 2-2.45h.012c.775.75 1.838 1.2 2.988 1.2 0-.438.038-.85.125-1.25h-.125c-1.025 0-1.925-.488-2.5-1.25-.388-.513-.625-1.175-.625-1.875 0-.212.025-.425.062-.625.1-.463.288-.887.563-1.25.312-.425.737-.762 1.213-.975.4-.175.824-.275 1.287-.275s.887.1 1.288.275c.475.213.9.55 1.212.975.212.287.375.6.488.95.037-.037.087-.062.125-.087.112-.075.237-.137.363-.2.2-.113.412-.2.637-.275-.05-.138-.113-.263-.176-.388-.487-1.05-1.375-1.863-2.475-2.238-.4-.15-.812-.237-1.25-.25-.075-.012-.137-.012-.212-.012s-.137 0-.212.012c-.438.013-.85.1-1.25.25-1.1.375-1.988 1.188-2.475 2.238-.2.388-.325.812-.388 1.25-.038.2-.05.413-.05.625 0 .762.2 1.5.563 2.125-1.425.525-2.438 1.9-2.438 3.5 0 1.375 1.125 2.5 2.5 2.5h2.512c.263-.35.55-.663.888-.95zM-262.438 417.64c.363-.625.563-1.363.563-2.125 0-.212-.012-.425-.05-.625-.062-.438-.187-.862-.388-1.25-.488-1.05-1.375-1.863-2.475-2.238-.4-.15-.812-.237-1.25-.25-.075-.012-.137-.012-.212-.012s-.137 0-.212.012c-.438.013-.85.1-1.25.25-1.1.375-1.988 1.188-2.475 2.238-.063.125-.125.25-.162.388.226.075.463.187.675.3.113.05.213.113.312.175.038.025.088.05.125.075.113-.338.276-.663.488-.938.312-.425.737-.762 1.213-.975.4-.175.825-.275 1.287-.275s.887.1 1.288.275c.475.213.9.55 1.212.975.275.363.463.787.563 1.25.037.2.062.413.062.625 0 .7-.237 1.362-.625 1.875-.575.762-1.475 1.25-2.5 1.25h-.125c.088.4.125.8.125 1.25 1.15 0 2.213-.45 2.988-1.2h.012c1.138.237 2 1.25 2 2.45 0 .687-.563 1.25-1.25 1.25h-3.775c.15.112.275.212.413.338.324.275.612.574.862.912h2.5c1.375 0 2.5-1.125 2.5-2.5 0-1.6-1.013-2.975-2.438-3.5z"></path>
	<path d="M-267.225 423.24c-.35-.237-.725-.425-1.125-.563.063-.087.125-.187.175-.287 1.702-2.832-.082-6.934-3.425-7.412-.287-.062-.588-.087-.9-.087-.312 0-.613.026-.9.088-3.474.496-4.95 4.527-3.425 7.412.05.1.112.2.175.287-.4.137-.775.325-1.125.563-.188.125-.35.25-.513.4-1.05.9-1.712 2.25-1.712 3.75 0 1.375 1.125 2.5 2.5 2.5h10c1.375 0 2.5-1.125 2.5-2.5 0-1.5-.662-2.85-1.713-3.75-.162-.15-.324-.275-.512-.4-.35-.237.188.125 0 0zm-8.8-2.088c-.992-2.728 1.545-5.58 4.375-4.917 2.63.616 3.938 4.155 1.926 6.167-.676.763-1.676 1.238-2.776 1.238s-2.1-.475-2.775-1.238c-.338-.338-.59-.805-.75-1.25zm9.775 6.238c0 .687-.563 1.25-1.25 1.25h-10c-.687 0-1.25-.563-1.25-1.25 0-1.337.7-2.512 1.75-3.175.388-.237.812-.413 1.275-.5.875.725 2 1.175 3.225 1.175s2.35-.45 3.225-1.175c.463.087.887.262 1.275.5 1.05.663 1.75 1.838 1.75 3.175z"></path>
	</g>
</svg>	