<svg xmlns="http://www.w3.org/2000/svg" focusable="false" tabindex="-1" width="24" height="24" baseProfile="tiny" viewBox="0 0 24 24">
                           <path fill="#37454D" class="svg-color--primary" d="M21 10.8c-.1-.4-.4-.7-.8-.8l-5.4-.9L13 3.7c-.2-.4-.6-.7-1-.7s-.8.3-.9.7L9.2 9.1l-5.4.9c-.4.1-.7.4-.8.8s.1.8.5 1l4.3 2.6-1.7 5.2c-.1.4 0 .9.4 1.1.1.2.3.3.5.3s.4-.1.6-.2l4.4-3.5 4.4 3.5c.2.1.4.2.6.2.2 0 .4-.1.6-.2.4-.3.5-.7.4-1.1l-1.7-5.2 4.3-2.6c.3-.3.5-.7.4-1.1z"></path>
                        </svg>