<svg xmlns="http://www.w3.org/2000/svg" focusable="false" tabindex="-1" width="12" height="12" viewBox="0 0 12 12">
		            <path class="svg-color--primary" fill="#697379" d="M7.414 6l4.293-4.293C11.903 1.51 12 1.257 12 1s-.097-.512-.293-.707c-.39-.39-1.023-.39-1.414 0L6 4.586 1.707.293c-.39-.39-1.023-.39-1.414 0C.097.488 0 .743 0 1s.097.512.293.707L4.586 6 .293 10.293C.097 10.488 0 10.743 0 11s.097.512.293.707S.743 12 1 12s.512-.097.707-.293L6 7.414l4.293 4.293c.195.195.45.293.707.293s.512-.097.707-.293S12 11.257 12 11s-.097-.512-.293-.707L7.414 6z"></path>
		         </svg>