<svg xmlns="http://www.w3.org/2000/svg" width="24" height="24" baseProfile="tiny" viewBox="0 0 24 24">
    <path fill="#37454D" class="svg-color--primary" d="M18 15c-1 0-1.9.5-2.4 1.2l-6.7-3.4c.1-.2.1-.5.1-.8s0-.6-.1-.9l6.7-3.4C16.1 8.5 17 9 18 9c1.6 0 3-1.4 3-3s-1.4-3-3-3-3 1.4-3 3c0 .3 0 .6.1.9l-6.7 3.4C7.9 9.5 7 9 6 9c-1.6 0-3 1.4-3 3s1.4 3 3 3c1 0 1.9-.5 2.4-1.2l6.7 3.4c-.1.2-.1.5-.1.8 0 1.6 1.4 3 3 3s3-1.4 3-3-1.4-3-3-3zm-2-9c0-1.1.9-2 2-2s2 .9 2 2-.9 2-2 2c-.6 0-1.1-.3-1.5-.7-.2-.2-.4-.6-.5-.9V6zM6 14c-1.1 0-2-.9-2-2s.9-2 2-2c.6 0 1.1.3 1.5.7.2.2.4.6.5.9v.8c-.1.3-.2.6-.5.9-.4.4-.9.7-1.5.7zm12 6c-1.1 0-2-.9-2-2v-.4c.1-.3.2-.6.5-.9.4-.4.9-.7 1.5-.7 1.1 0 2 .9 2 2s-.9 2-2 2z"></path>
 </svg>