<svg xmlns="http://www.w3.org/2000/svg" focusable="false" tabindex="-1" width="24" height="24" viewBox="0 0 24 24">
   <path class="svg-color--primary" fill="#37454D" d="M20.9 13.11c.42-.44.69-1.06.69-1.73 0-1.38-1.12-2.49-2.5-2.49-.2 0-.4.02-.58.08-.18.04-.35.1-.51.18.01.05 0 .1-.01.15.01.03 0 .15-.03.29-.02.16-.05.33-.09.49.17-.16.37-.29.59-.37.19-.08.41-.12.63-.12 1 0 1.8.8 1.8 1.79 0 .69-.4 1.3-.98 1.59-.05.03-.1.05-.16.07-.16.06-.33.11-.51.12-.05.01-.1.01-.15.01-.16 0-.32-.02-.47-.07-.08-.12-.16-.23-.26-.34-.23-.29-.51-.54-.83-.75-.05-.03-.09-.06-.14-.09-.24-.15-.49-.28-.76-.37-.01-.01-.02-.01-.03-.01-.03-.02-.05-.02-.08-.03.02-.02.05-.05.07-.08.01 0 .01-.01.02-.02.47-.51.782-1.192.862-1.92.018-.1.028-.19.028-.29.01-.05.01-.1.01-.15 0-1.96-1.59-3.55-3.55-3.55-1.41 0-2.63.82-3.2 2.02-.22.46-.35.98-.35 1.53s.12 1.07.35 1.53c.16.35.38.66.64.93-.08.03-.17.06-.25.09-.33.13-.65.31-.93.53-.14-.11-.29-.21-.44-.29-.16-.09-.32-.16-.48-.23-.09-.04-.17-.07-.26-.1.26-.27.48-.58.64-.92.13-.28.23-.58.29-.9.04-.21.06-.42.06-.64 0-.22-.022-.44-.06-.65-.06-.31-.16-.61-.29-.88-.572-1.2-1.79-2.02-3.2-2.02-1.96 0-3.55 1.59-3.55 3.55 0 .96.38 1.83.99 2.46-1.61.52-2.78 2.03-2.78 3.81v.19c0 .79.64 1.44 1.43 1.44h7.82c.64 0 1.18-.42 1.36-1 .05-.14.07-.29.07-.44v-.19c0-.12-.01-.25-.02-.37-.04-.442-.15-.87-.33-1.26-.07-.15-.15-.31-.24-.45s-.19-.282-.29-.41c.29-.19.61-.34.95-.42.22-.06.45-.09.69-.09h.01c.42.18.88.28 1.37.28s.95-.1 1.37-.282h.01c.66.01 1.28.23 1.77.61.05.03.09.07.13.1.16.13.3.29.43.45.06.07.11.15.16.23.3.46.47 1.02.47 1.61v.19c0 .24-.19.442-.43.442h-5.09c-.07.37-.21.71-.42 1h5.51c.04 0 .08 0 .12-.01.26-.02.5-.11.7-.26.17-.12.32-.28.42-.46.05-.08.08-.16.11-.25.05-.14.08-.3.08-.46v-.19c0-.51-.1-1-.28-1.45.02.01.05.01.07.01.15 0 .3-.02.44-.04.18-.04.35-.09.5-.15.01 0 .01-.01.02-.01h.02c1.15.02 2.08.95 2.08 2.11v.13c0 .17-.14.3-.31.3h-1.66c0 .03-.01.06-.02.09-.07.22-.18.43-.32.63h2c.56 0 1-.47 1-1.02v-.13c0-1.25-.81-2.32-1.94-2.68zM6.48 6.5c1.41 0 2.55 1.14 2.55 2.55 0 .99-.57 1.85-1.4 2.27-.34.18-.74.28-1.15.28s-.81-.1-1.15-.28c-.83-.42-1.4-1.28-1.4-2.27 0-1.41 1.14-2.55 2.55-2.55zm4.34 9.01c0 .24-.19.44-.43.44H2.57c-.24 0-.43-.2-.43-.44v-.19c0-1.65 1.32-2.98 2.96-3h.01c.42.18.88.28 1.37.28s.95-.1 1.37-.28h.01c.24 0 .47.04.69.1.18.04.35.1.51.16.15.08.3.16.44.25.27.19.52.41.72.678.11.14.2.3.28.46.09.18.16.36.21.56.04.14.07.28.09.42.01.12.02.24.02.37v.192zm4.29-4.19c-.34.18-.74.28-1.15.28s-.81-.1-1.15-.28c-.83-.42-1.4-1.28-1.4-2.27 0-1.41 1.14-2.55 2.55-2.55s2.55 1.14 2.55 2.55c0 .99-.57 1.85-1.4 2.27z"></path>
   <path fill="none" d="M0 0h24v24H0z"></path>
</svg>